[img]http://img820.imageshack.us/img820/3117/rdsf5.jpg[/img]
[CODE]

Monsters 2010 TVRip XviD-OlFa
 
http://www.imdb.com/title/tt1470827/ 

Six years ago NASA discovered the possibility of alien life within 
our solar system. A probe was launched to collect samples, but 
crashed upon re-entry over Central America. Soon after, new life 
form began to appear and half of Mexico was quarantined as an 
INFECTED ZONE. Today, the American and Mexican military still 
struggle to contain "the creatures"...... 

Hardcoded eng subs for most foreign parts, not all.

Format                           : AVI
Format/Info                      : Audio Video Interleave
File size                        : 1.02 GiB
Duration                         : 1h 31mn
Overall bit rate                 : 1 600 Kbps
Writing Application              : VirtualDub build 24442/release
Writing library                  : Nandub build 1853/release

Video
ID                               : 0
Format                           : MPEG-4 Visual
Format profile                   : Advanced Simple@L5
Format settings, BVOP            : No
Format settings, QPel            : No
Format settings, GMC             : No warppoints
Format settings, Matrix          : Default (MPEG)
Codec ID                         : XVID
Codec ID/Hint                    : XviD
Duration                         : 1h 31mn
Bit rate                         : 1 461 Kbps
Width                            : 640 pixels
Height                           : 352 pixels
Display aspect ratio             : 16:9
Frame rate                       : 29.970 fps
Color space                      : YUV
Chroma subsampling               : 4:2:0
Bit depth                        : 8 bits
Scan type                        : Progressive
Bits/(Pixel*Frame)               : 0.216
Stream size                      : 951 MiB (91%)
Writing library                  : XviD 1.1.2 (UTC 2006-11-01)

Audio
ID                               : 1
Format                           : MPEG Audio
Format version                   : Version 1
Format profile                   : Layer 3
Codec ID                         : 55
Codec ID/Hint                    : MP3
Duration                         : 1h 31mn
Bit rate mode                    : Constant
Bit rate                         : 128 Kbps
Channel(s)                       : 2 channels
Sampling rate                    : 44.1 KHz
Stream size                      : 83.4 MiB (8%)
Alignment                        : Split accross interleaves
Interleave, duration             : 33 ms (1.00 video frame)
Interleave, preload duration     : 500 ms

used Cybropm source and resynced audio at point where vframes were dropped, 
nothing else was done...some parts are very dark and some jerkyness still exists.

[/CODE]
Screens:
[img]http://img137.imageshack.us/img137/254/23198209.jpg[/img]
[img]http://img830.imageshack.us/img830/195/11008256.jpg[/img]
[img]http://img696.imageshack.us/img696/5273/81766843.jpg[/img]
